<svg xmlns="http://www.w3.org/2000/svg" xmlns:xlink="http://www.w3.org/1999/xlink" width="81" height="81" version="1.1" viewBox="0 0 81 81"><title>External Link</title><g fill="none" fill-rule="evenodd" stroke="none" stroke-width="1"><g fill="#000"><path d="M78.438,0.3438 C78.32081,0.34771 78.20362,0.35942 78.09034,0.37505 L53.50034,0.37505 C52.6644,0.36333 51.85584,0.68755 51.26204,1.27349 C50.66438,1.86333 50.32845,2.66409 50.32845,3.50009 C50.32845,4.33609 50.66439,5.13679 51.26204,5.72669 C51.85579,6.31263 52.66434,6.63685 53.50034,6.62513 L70.95734,6.62513 L32.54334,45.03913 L32.53944,45.03913 C31.93397,45.62116 31.59022,46.42193 31.58241,47.26183 C31.57459,48.10167 31.90272,48.91023 32.49647,49.50013 C33.09022,50.09388 33.89877,50.42591 34.73477,50.4181 C35.57461,50.41029 36.37537,50.06263 36.95747,49.46107 L75.37147,11.04707 L75.37147,28.50407 L75.37537,28.50016 C75.36365,29.3361 75.68787,30.14466 76.27381,30.73846 C76.85975,31.33612 77.66441,31.66815 78.50041,31.66815 C79.33641,31.66815 80.13711,31.33612 80.72311,30.73846 C81.31295,30.14471 81.63717,29.33616 81.62545,28.50016 L81.62545,3.89817 C81.75045,2.98411 81.4692,2.06617 80.85592,1.38257 C80.24264,0.69898 79.35592,0.31617 78.43792,0.34347 L78.438,0.3438 Z"/><path d="M34.75,12.875 C26.9492,12.875 21.055,12.86328 16.359,13.39453 C11.663,13.92578 7.902,15.04293 5.214,17.73433 C2.526,20.42573 1.421,24.17963 0.893699,28.87533 C0.366359,33.57063 0.374169,39.46133 0.374169,47.25433 C0.374169,55.04733 0.366357,60.94233 0.905419,65.63733 C1.44448,70.33263 2.57342,74.08653 5.26872,76.77833 C7.96402,79.46583 11.71792,80.58303 16.40972,81.110328 C21.10112,81.641578 26.97972,81.629858 34.74972,81.629858 C42.51972,81.629858 48.39772,81.633764 53.08972,81.098608 C57.78172,80.56345 61.54282,79.44241 64.23472,76.75481 C66.93002,74.06341 68.04722,70.30951 68.58632,65.61381 C69.12538,60.91851 69.12538,55.03181 69.12538,47.25481 L69.12538,47.2509 C69.1371,46.41496 68.81288,45.6103 68.22694,45.0126 C67.6371,44.41885 66.83634,44.08291 66.00034,44.08291 C65.16434,44.08291 64.36364,44.41885 63.77374,45.0126 C63.1878,45.61026 62.86358,46.4149 62.8753,47.2509 C62.8753,55.0243 62.84796,60.8209 62.37921,64.9029 C61.91046,68.9849 61.05111,71.0982 59.81671,72.3326 C58.58231,73.567 56.46901,74.4264 52.38701,74.8912 C48.30501,75.356 42.51201,75.37948 34.74601,75.37948 C26.98001,75.37948 21.18701,75.35995 17.10501,74.89901 C13.02301,74.43807 10.90971,73.58261 9.67531,72.35211 C8.44091,71.12161 7.57761,69.00831 7.11281,64.92241 C6.64406,60.83651 6.61672,55.03961 6.61672,47.25441 C6.61672,39.46531 6.63234,33.66441 7.09328,29.57841 C7.55031,25.49251 8.40968,23.38311 9.63238,22.15651 C10.85508,20.92991 12.96828,20.07451 17.05428,19.60961 C21.14018,19.14867 26.94488,19.12914 34.74228,19.12914 L34.75009,19.12524 C35.58603,19.13696 36.39459,18.81274 36.98839,18.2268 C37.58605,17.63696 37.91808,16.8362 37.91808,16.0002 C37.91808,15.1642 37.58605,14.3635 36.98839,13.7736 C36.39464,13.18766 35.58609,12.86344 34.75009,12.87516 L34.75,12.875 Z"/></g></g></svg>